<?xml version="1.0" encoding="UTF-8"?>
<svg xmlns="http://www.w3.org/2000/svg" xmlns:xlink="http://www.w3.org/1999/xlink" width="30pt" height="30.000001pt" viewBox="0 0 30 30.000001" version="1.2">
<defs>
<clipPath id="clip1">
  <path d="M 4.910156 4.257812 L 25.230469 4.257812 L 25.230469 24.582031 L 4.910156 24.582031 Z M 4.910156 4.257812 "/>
</clipPath>
</defs>
<g id="surface1">
<path style=" stroke:none;fill-rule:nonzero;fill:rgb(100%,46.269226%,26.269531%);fill-opacity:1;" d="M 10.660156 22.585938 L 11.335938 22.585938 L 11.335938 21.921875 L 10.660156 21.921875 L 10.660156 22.585938 "/>
<path style=" stroke:none;fill-rule:nonzero;fill:rgb(100%,46.269226%,26.269531%);fill-opacity:1;" d="M 11.304688 19.5625 C 10.296875 19.410156 9.492188 18.621094 9.335938 17.625 C 10.347656 17.78125 11.148438 18.570312 11.304688 19.5625 Z M 9.335938 14.300781 C 10.347656 14.453125 11.148438 15.242188 11.304688 16.238281 C 10.296875 16.082031 9.492188 15.292969 9.335938 14.300781 Z M 14.011719 14.300781 C 13.855469 15.292969 13.050781 16.082031 12.039062 16.238281 C 12.199219 15.242188 13 14.453125 14.011719 14.300781 Z M 14.011719 17.625 C 13.855469 18.621094 13.050781 19.410156 12.039062 19.5625 C 12.199219 18.570312 13 17.78125 14.011719 17.625 Z M 11.335938 20.238281 L 11.335938 20.921875 L 12.011719 20.921875 L 12.011719 20.238281 C 13.53125 20.070312 14.714844 18.800781 14.714844 17.265625 L 14.714844 16.929688 L 14.378906 16.929688 C 13.421875 16.929688 12.570312 17.367188 12.011719 18.046875 L 12.011719 16.910156 C 13.53125 16.746094 14.714844 15.476562 14.714844 13.9375 L 14.714844 13.605469 L 14.378906 13.605469 C 13.199219 13.605469 12.179688 14.269531 11.671875 15.234375 C 11.167969 14.269531 10.148438 13.605469 8.96875 13.605469 L 8.632812 13.605469 L 8.632812 13.9375 C 8.632812 15.476562 9.816406 16.746094 11.335938 16.910156 L 11.335938 18.046875 C 10.777344 17.367188 9.925781 16.929688 8.96875 16.929688 L 8.632812 16.929688 L 8.632812 17.265625 C 8.632812 18.800781 9.816406 20.070312 11.335938 20.238281 "/>
<g clip-path="url(#clip1)" clip-rule="nonzero">
<path style=" stroke:none;fill-rule:nonzero;fill:rgb(100%,46.269226%,26.269531%);fill-opacity:1;" d="M 17.476562 23.917969 L 19.003906 22.167969 C 19.453125 21.648438 20.109375 21.351562 20.800781 21.351562 C 21.492188 21.351562 22.148438 21.648438 22.597656 22.167969 L 24.121094 23.917969 Z M 6.265625 10.277344 L 6.265625 9.613281 L 12.011719 9.613281 L 12.011719 8.949219 L 6.265625 8.949219 L 6.265625 8.285156 L 17.082031 8.285156 L 17.082031 8.949219 L 15.390625 8.949219 L 15.390625 9.613281 L 17.082031 9.613281 L 17.082031 10.277344 Z M 16.40625 23.917969 L 6.265625 23.917969 C 5.894531 23.917969 5.589844 23.617188 5.589844 23.25 C 5.589844 22.882812 5.894531 22.585938 6.265625 22.585938 L 9.984375 22.585938 L 9.984375 21.921875 L 6.941406 21.921875 L 6.941406 10.945312 L 16.40625 10.945312 Z M 9.882812 5.859375 C 10.769531 4.984375 12.578125 4.984375 13.445312 5.839844 L 14.996094 7.617188 L 8.351562 7.617188 Z M 23.109375 21.730469 C 22.53125 21.066406 21.691406 20.6875 20.800781 20.6875 C 19.910156 20.6875 19.070312 21.066406 18.488281 21.730469 L 17.082031 23.351562 L 17.082031 10.945312 L 17.757812 10.945312 L 17.757812 7.617188 L 15.886719 7.617188 L 13.941406 5.386719 C 12.796875 4.261719 10.550781 4.261719 9.390625 5.40625 L 7.460938 7.617188 L 5.589844 7.617188 L 5.589844 10.945312 L 6.265625 10.945312 L 6.265625 21.921875 C 5.519531 21.921875 4.914062 22.515625 4.914062 23.25 C 4.914062 23.984375 5.519531 24.582031 6.265625 24.582031 L 24.855469 24.582031 C 24.988281 24.582031 25.109375 24.507812 25.164062 24.386719 C 25.21875 24.269531 25.199219 24.128906 25.113281 24.035156 L 23.109375 21.730469 "/>
</g>
<path style=" stroke:none;fill-rule:nonzero;fill:rgb(100%,46.269226%,26.269531%);fill-opacity:1;" d="M 19.449219 23.25 L 20.125 23.25 L 20.125 22.585938 L 19.449219 22.585938 L 19.449219 23.25 "/>
<path style=" stroke:none;fill-rule:nonzero;fill:rgb(100%,46.269226%,26.269531%);fill-opacity:1;" d="M 20.800781 22.585938 L 21.476562 22.585938 L 21.476562 21.921875 L 20.800781 21.921875 L 20.800781 22.585938 "/>
<path style=" stroke:none;fill-rule:nonzero;fill:rgb(100%,46.269226%,26.269531%);fill-opacity:1;" d="M 12.347656 6.953125 L 13.027344 6.953125 L 13.027344 6.289062 L 12.347656 6.289062 L 12.347656 6.953125 "/>
<path style=" stroke:none;fill-rule:nonzero;fill:rgb(100%,46.269226%,26.269531%);fill-opacity:1;" d="M 10.660156 6.621094 L 11.335938 6.621094 L 11.335938 5.957031 L 10.660156 5.957031 L 10.660156 6.621094 "/>
<path style=" stroke:none;fill-rule:nonzero;fill:rgb(100%,46.269226%,26.269531%);fill-opacity:1;" d="M 20.800781 17.597656 L 20.125 17.597656 L 20.125 18.261719 L 20.800781 18.261719 L 20.800781 17.597656 "/>
<path style=" stroke:none;fill-rule:nonzero;fill:rgb(100%,46.269226%,26.269531%);fill-opacity:1;" d="M 22.152344 18.925781 L 22.152344 19.59375 L 22.828125 19.59375 L 22.828125 18.925781 L 22.152344 18.925781 "/>
<path style=" stroke:none;fill-rule:nonzero;fill:rgb(100%,46.269226%,26.269531%);fill-opacity:1;" d="M 18.773438 19.257812 L 18.773438 19.925781 L 19.449219 19.925781 L 19.449219 19.257812 L 18.773438 19.257812 "/>
</g>
</svg>
