<?xml version="1.0" encoding="UTF-8"?>
<svg xmlns="http://www.w3.org/2000/svg" xmlns:xlink="http://www.w3.org/1999/xlink" width="30pt" height="30.000001pt" viewBox="0 0 30 30.000001" version="1.2">
<defs>
<clipPath id="clip1">
  <path d="M 4.769531 4.464844 L 11 4.464844 L 11 24.789062 L 4.769531 24.789062 Z M 4.769531 4.464844 "/>
</clipPath>
<clipPath id="clip2">
  <path d="M 10 15 L 21 15 L 21 24.789062 L 10 24.789062 Z M 10 15 "/>
</clipPath>
<clipPath id="clip3">
  <path d="M 14 24 L 16 24 L 16 24.789062 L 14 24.789062 Z M 14 24 "/>
</clipPath>
<clipPath id="clip4">
  <path d="M 21 10 L 25.09375 10 L 25.09375 24.789062 L 21 24.789062 Z M 21 10 "/>
</clipPath>
<clipPath id="clip5">
  <path d="M 22 4.464844 L 24 4.464844 L 24 6 L 22 6 Z M 22 4.464844 "/>
</clipPath>
<clipPath id="clip6">
  <path d="M 13 4.464844 L 16 4.464844 L 16 7 L 13 7 Z M 13 4.464844 "/>
</clipPath>
</defs>
<g id="surface1">
<g clip-path="url(#clip1)" clip-rule="nonzero">
<path style=" stroke:none;fill-rule:nonzero;fill:rgb(100%,46.269226%,26.269531%);fill-opacity:1;" d="M 7.480469 5.410156 L 7.820312 5.410156 C 8.914062 5.410156 9.808594 6.292969 9.851562 7.398438 L 8.835938 9.464844 L 8.835938 8.164062 L 8.15625 8.164062 L 8.15625 9.886719 L 7.140625 9.886719 L 7.140625 7.476562 L 6.464844 7.476562 L 6.464844 9.464844 L 5.449219 7.398438 C 5.492188 6.292969 6.386719 5.410156 7.480469 5.410156 Z M 8.464844 11.613281 L 6.835938 11.613281 L 6.8125 10.578125 L 8.488281 10.578125 Z M 8.164062 24.019531 L 7.132812 24.019531 L 6.851562 12.300781 L 8.445312 12.300781 Z M 6.128906 10.316406 L 6.464844 24.371094 C 6.46875 24.558594 6.621094 24.707031 6.804688 24.707031 L 8.496094 24.707031 C 8.679688 24.707031 8.828125 24.558594 8.835938 24.371094 L 9.171875 10.316406 L 10.492188 7.632812 C 10.515625 7.582031 10.527344 7.53125 10.527344 7.476562 C 10.527344 5.957031 9.3125 4.71875 7.820312 4.71875 L 7.480469 4.71875 C 5.988281 4.71875 4.769531 5.957031 4.769531 7.476562 C 4.769531 7.53125 4.78125 7.582031 4.804688 7.632812 L 6.128906 10.316406 "/>
</g>
<g clip-path="url(#clip2)" clip-rule="nonzero">
<path style=" stroke:none;fill-rule:nonzero;fill:rgb(100%,46.269226%,26.269531%);fill-opacity:1;" d="M 15.027344 20.628906 C 13.089844 19.027344 12.363281 17.136719 12.917969 16.441406 C 13.097656 16.214844 13.425781 16.097656 13.855469 16.097656 C 14.746094 16.097656 16.070312 16.605469 17.378906 17.6875 C 19.3125 19.289062 20.042969 21.183594 19.484375 21.878906 C 19.207031 22.230469 18.59375 22.320312 17.808594 22.128906 C 16.921875 21.914062 15.933594 21.382812 15.027344 20.628906 Z M 10.359375 22.640625 L 10.359375 24.363281 C 10.359375 24.554688 10.511719 24.707031 10.699219 24.707031 L 13.914062 24.707031 L 13.914062 24.019531 L 11.035156 24.019531 L 11.035156 22.984375 L 19.503906 22.984375 L 19.503906 24.019531 L 15.949219 24.019531 L 15.949219 24.707031 L 19.84375 24.707031 C 20.03125 24.707031 20.183594 24.554688 20.183594 24.363281 L 20.183594 22.640625 C 20.183594 22.503906 20.101562 22.390625 19.992188 22.332031 C 19.996094 22.324219 20.007812 22.320312 20.011719 22.3125 C 20.910156 21.1875 19.941406 18.921875 17.804688 17.152344 C 15.667969 15.386719 13.292969 14.882812 12.390625 16.003906 C 11.492188 17.128906 12.464844 19.398438 14.597656 21.164062 C 15.152344 21.625 15.738281 22.003906 16.320312 22.296875 L 10.699219 22.296875 C 10.511719 22.296875 10.359375 22.449219 10.359375 22.640625 "/>
</g>
<g clip-path="url(#clip3)" clip-rule="nonzero">
<path style=" stroke:none;fill-rule:nonzero;fill:rgb(100%,46.269226%,26.269531%);fill-opacity:1;" d="M 15.269531 24.019531 L 14.59375 24.019531 L 14.59375 24.707031 L 15.269531 24.707031 L 15.269531 24.019531 "/>
</g>
<path style=" stroke:none;fill-rule:nonzero;fill:rgb(100%,46.269226%,26.269531%);fill-opacity:1;" d="M 15.878906 19.5625 C 14.9375 18.777344 14.429688 18.007812 14.210938 17.515625 C 14.792969 17.640625 15.65625 18.042969 16.523438 18.757812 C 17.464844 19.539062 17.976562 20.3125 18.195312 20.804688 C 17.613281 20.679688 16.75 20.277344 15.878906 19.5625 Z M 18.691406 21.53125 C 18.878906 21.511719 19.011719 21.34375 18.996094 21.15625 C 18.957031 20.695312 18.476562 19.484375 16.949219 18.222656 C 15.664062 17.160156 14.476562 16.78125 13.855469 16.78125 C 13.796875 16.78125 13.75 16.785156 13.710938 16.789062 C 13.527344 16.808594 13.390625 16.972656 13.40625 17.164062 C 13.449219 17.625 13.929688 18.835938 15.453125 20.09375 C 16.742188 21.160156 17.925781 21.539062 18.550781 21.539062 C 18.609375 21.539062 18.652344 21.535156 18.691406 21.53125 "/>
<g clip-path="url(#clip4)" clip-rule="nonzero">
<path style=" stroke:none;fill-rule:nonzero;fill:rgb(100%,46.269226%,26.269531%);fill-opacity:1;" d="M 21.707031 17.816406 L 24.414062 17.816406 L 24.414062 23.730469 C 24.414062 23.921875 24.265625 24.078125 24.078125 24.078125 L 22.046875 24.078125 C 21.859375 24.078125 21.707031 23.921875 21.707031 23.730469 Z M 22.046875 14.023438 L 24.078125 14.023438 L 24.078125 17.125 L 22.046875 17.125 Z M 22.382812 11.898438 C 22.382812 11.804688 22.417969 11.71875 22.484375 11.652344 L 23.160156 10.964844 C 23.308594 10.8125 23.480469 10.867188 23.53125 10.890625 C 23.578125 10.910156 23.738281 10.992188 23.738281 11.207031 L 23.738281 13.335938 L 22.382812 13.335938 Z M 22.046875 24.765625 L 24.078125 24.765625 C 24.636719 24.765625 25.09375 24.300781 25.09375 23.730469 L 25.09375 17.46875 C 25.09375 17.28125 24.941406 17.125 24.753906 17.125 L 24.753906 13.679688 C 24.753906 13.488281 24.601562 13.335938 24.414062 13.335938 L 24.414062 11.207031 C 24.414062 10.78125 24.175781 10.417969 23.789062 10.253906 C 23.402344 10.089844 22.976562 10.175781 22.679688 10.476562 L 22.003906 11.167969 C 21.8125 11.359375 21.707031 11.621094 21.707031 11.898438 L 21.707031 13.335938 C 21.519531 13.335938 21.367188 13.488281 21.367188 13.679688 L 21.367188 17.125 C 21.179688 17.125 21.027344 17.28125 21.027344 17.46875 L 21.027344 23.730469 C 21.027344 24.300781 21.484375 24.765625 22.046875 24.765625 "/>
</g>
<g clip-path="url(#clip5)" clip-rule="nonzero">
<path style=" stroke:none;fill-rule:nonzero;fill:rgb(100%,46.269226%,26.269531%);fill-opacity:1;" d="M 22.960938 5.996094 L 23.230469 5.722656 L 23.5 5.996094 L 23.976562 5.507812 L 23.710938 5.234375 L 23.976562 4.960938 L 23.5 4.476562 L 23.230469 4.75 L 22.960938 4.476562 L 22.484375 4.960938 L 22.75 5.234375 L 22.484375 5.507812 L 22.960938 5.996094 "/>
</g>
<path style=" stroke:none;fill-rule:nonzero;fill:rgb(100%,46.269226%,26.269531%);fill-opacity:1;" d="M 11.785156 12.199219 L 12.054688 11.925781 L 12.320312 12.199219 L 12.800781 11.710938 L 12.53125 11.4375 L 12.800781 11.167969 L 12.320312 10.679688 L 12.054688 10.953125 L 11.785156 10.679688 L 11.304688 11.167969 L 11.574219 11.4375 L 11.304688 11.710938 L 11.785156 12.199219 "/>
<path style=" stroke:none;fill-rule:nonzero;fill:rgb(100%,46.269226%,26.269531%);fill-opacity:1;" d="M 19.027344 15.917969 L 18.757812 16.191406 L 19.234375 16.679688 L 19.503906 16.40625 L 19.773438 16.679688 L 20.253906 16.191406 L 19.984375 15.917969 L 20.253906 15.644531 L 19.773438 15.160156 L 19.503906 15.433594 L 19.234375 15.160156 L 18.757812 15.644531 L 19.027344 15.917969 "/>
<path style=" stroke:none;fill-rule:nonzero;fill:rgb(100%,46.269226%,26.269531%);fill-opacity:1;" d="M 17.542969 11.855469 L 17.980469 11.410156 L 18.417969 11.855469 L 18.898438 11.367188 L 18.460938 10.921875 L 18.898438 10.476562 L 18.417969 9.988281 L 17.980469 10.433594 L 17.542969 9.988281 L 17.0625 10.476562 L 17.5 10.921875 L 17.0625 11.367188 L 17.542969 11.855469 "/>
<g clip-path="url(#clip6)" clip-rule="nonzero">
<path style=" stroke:none;fill-rule:nonzero;fill:rgb(100%,46.269226%,26.269531%);fill-opacity:1;" d="M 13.816406 6.339844 L 14.253906 5.894531 L 14.691406 6.339844 L 15.171875 5.855469 L 14.734375 5.410156 L 15.171875 4.960938 L 14.691406 4.476562 L 14.253906 4.921875 L 13.816406 4.476562 L 13.335938 4.960938 L 13.777344 5.410156 L 13.335938 5.855469 L 13.816406 6.339844 "/>
</g>
<path style=" stroke:none;fill-rule:nonzero;fill:rgb(100%,46.269226%,26.269531%);fill-opacity:1;" d="M 23.738281 18.847656 L 23.0625 18.847656 L 23.0625 21.949219 L 23.738281 21.949219 L 23.738281 18.847656 "/>
<path style=" stroke:none;fill-rule:nonzero;fill:rgb(100%,46.269226%,26.269531%);fill-opacity:1;" d="M 23.738281 22.640625 L 23.0625 22.640625 L 23.0625 23.328125 L 23.738281 23.328125 L 23.738281 22.640625 "/>
</g>
</svg>
