<?xml version="1.0" encoding="UTF-8"?>
<svg xmlns="http://www.w3.org/2000/svg" xmlns:xlink="http://www.w3.org/1999/xlink" width="30pt" height="30.000001pt" viewBox="0 0 30 30.000001" version="1.2">
<defs>
<clipPath id="clip1">
  <path d="M 4.910156 9 L 21 9 L 21 24.75 L 4.910156 24.75 Z M 4.910156 9 "/>
</clipPath>
<clipPath id="clip2">
  <path d="M 9 4.425781 L 25 4.425781 L 25 20 L 9 20 Z M 9 4.425781 "/>
</clipPath>
</defs>
<g id="surface1">
<g clip-path="url(#clip1)" clip-rule="nonzero">
<path style=" stroke:none;fill-rule:nonzero;fill:rgb(100%,46.269226%,26.269531%);fill-opacity:1;" d="M 12.742188 24.75 C 11.675781 24.75 10.648438 24.542969 9.667969 24.121094 C 9.582031 24.085938 9.519531 24.023438 9.484375 23.9375 C 9.445312 23.851562 9.441406 23.765625 9.472656 23.679688 C 9.515625 23.5625 9.535156 23.445312 9.539062 23.328125 C 9.539062 23.183594 9.511719 23.046875 9.457031 22.917969 C 9.402344 22.789062 9.324219 22.671875 9.226562 22.570312 C 9.125 22.472656 9.007812 22.394531 8.878906 22.339844 C 8.75 22.285156 8.613281 22.257812 8.46875 22.257812 C 8.457031 22.261719 8.445312 22.265625 8.433594 22.261719 C 8.3125 22.269531 8.214844 22.222656 8.140625 22.128906 C 8.066406 22.039062 8.042969 21.933594 8.074219 21.816406 C 8.148438 21.554688 8.125 21.300781 8 21.058594 C 7.875 20.8125 7.683594 20.644531 7.425781 20.554688 C 7.328125 20.515625 7.261719 20.445312 7.222656 20.347656 C 7.183594 20.25 7.191406 20.152344 7.238281 20.058594 C 7.347656 19.855469 7.402344 19.640625 7.402344 19.410156 C 7.402344 19.222656 7.367188 19.042969 7.292969 18.867188 C 7.222656 18.691406 7.117188 18.539062 6.984375 18.40625 C 6.851562 18.273438 6.699219 18.167969 6.523438 18.097656 C 6.347656 18.023438 6.167969 17.988281 5.980469 17.988281 C 5.796875 17.988281 5.621094 18.023438 5.449219 18.09375 C 5.339844 18.136719 5.234375 18.128906 5.136719 18.066406 C 5.035156 18.007812 4.976562 17.917969 4.964844 17.800781 C 4.929688 17.507812 4.914062 17.214844 4.910156 16.921875 C 4.910156 16.40625 4.960938 15.898438 5.0625 15.390625 C 5.160156 14.886719 5.3125 14.398438 5.507812 13.921875 C 5.703125 13.449219 5.945312 12.996094 6.230469 12.570312 C 6.515625 12.140625 6.839844 11.746094 7.203125 11.382812 C 7.566406 11.019531 7.964844 10.695312 8.390625 10.410156 C 8.820312 10.125 9.269531 9.882812 9.746094 9.6875 C 10.21875 9.488281 10.710938 9.339844 11.214844 9.242188 C 11.71875 9.140625 12.226562 9.089844 12.742188 9.089844 C 13.253906 9.089844 13.765625 9.140625 14.269531 9.242188 C 14.773438 9.339844 15.261719 9.488281 15.738281 9.6875 C 16.210938 9.882812 16.664062 10.125 17.089844 10.410156 C 17.519531 10.695312 17.914062 11.019531 18.277344 11.382812 C 18.640625 11.746094 18.964844 12.140625 19.25 12.570312 C 19.539062 12.996094 19.777344 13.449219 19.976562 13.921875 C 20.171875 14.398438 20.320312 14.886719 20.421875 15.390625 C 20.519531 15.898438 20.570312 16.40625 20.570312 16.921875 C 20.570312 17.433594 20.519531 17.941406 20.421875 18.449219 C 20.320312 18.953125 20.171875 19.441406 19.976562 19.917969 C 19.777344 20.390625 19.539062 20.84375 19.25 21.269531 C 18.964844 21.699219 18.640625 22.09375 18.277344 22.457031 C 17.914062 22.820312 17.519531 23.144531 17.089844 23.429688 C 16.664062 23.714844 16.210938 23.957031 15.738281 24.152344 C 15.261719 24.351562 14.773438 24.5 14.269531 24.597656 C 13.765625 24.699219 13.253906 24.75 12.742188 24.75 Z M 10.230469 23.582031 C 10.699219 23.757812 11.183594 23.886719 11.683594 23.960938 C 12.179688 24.035156 12.679688 24.058594 13.183594 24.027344 C 13.6875 23.996094 14.179688 23.910156 14.664062 23.773438 C 15.148438 23.640625 15.613281 23.453125 16.058594 23.21875 C 16.503906 22.984375 16.921875 22.707031 17.308594 22.382812 C 17.695312 22.058594 18.042969 21.699219 18.351562 21.304688 C 18.660156 20.90625 18.925781 20.480469 19.144531 20.027344 C 19.367188 19.574219 19.535156 19.105469 19.65625 18.617188 C 19.777344 18.125 19.84375 17.628906 19.859375 17.128906 C 19.871094 16.625 19.832031 16.125 19.742188 15.628906 C 19.652344 15.136719 19.507812 14.65625 19.316406 14.191406 C 19.121094 13.726562 18.882812 13.285156 18.597656 12.871094 C 18.3125 12.457031 17.984375 12.078125 17.617188 11.734375 C 17.25 11.386719 16.851562 11.085938 16.421875 10.824219 C 15.988281 10.566406 15.535156 10.355469 15.058594 10.191406 C 14.582031 10.027344 14.097656 9.914062 13.597656 9.851562 C 13.097656 9.792969 12.59375 9.785156 12.09375 9.832031 C 11.59375 9.878906 11.101562 9.976562 10.621094 10.125 C 10.140625 10.273438 9.679688 10.472656 9.242188 10.722656 C 8.804688 10.96875 8.394531 11.257812 8.019531 11.59375 C 7.644531 11.925781 7.304688 12.296875 7.007812 12.703125 C 6.707031 13.109375 6.457031 13.539062 6.25 14 C 6.042969 14.457031 5.886719 14.933594 5.78125 15.425781 C 5.675781 15.917969 5.625 16.417969 5.625 16.921875 C 5.625 17.042969 5.625 17.171875 5.636719 17.304688 C 5.75 17.285156 5.863281 17.277344 5.980469 17.277344 C 6.261719 17.277344 6.535156 17.332031 6.796875 17.4375 C 7.058594 17.546875 7.289062 17.703125 7.488281 17.902344 C 7.6875 18.101562 7.84375 18.332031 7.953125 18.59375 C 8.058594 18.855469 8.113281 19.128906 8.113281 19.410156 C 8.113281 19.632812 8.078125 19.84375 8.011719 20.054688 C 8.265625 20.214844 8.464844 20.429688 8.609375 20.695312 C 8.753906 20.960938 8.828125 21.246094 8.828125 21.546875 C 8.828125 21.558594 8.828125 21.570312 8.824219 21.582031 C 9.238281 21.667969 9.582031 21.875 9.847656 22.199219 C 10.117188 22.527344 10.25 22.902344 10.25 23.328125 C 10.25 23.410156 10.242188 23.496094 10.230469 23.582031 Z M 10.230469 23.582031 "/>
</g>
<g clip-path="url(#clip2)" clip-rule="nonzero">
<path style=" stroke:none;fill-rule:nonzero;fill:rgb(100%,46.269226%,26.269531%);fill-opacity:1;" d="M 19.714844 19.976562 C 19.515625 19.976562 19.398438 19.878906 19.363281 19.6875 C 19.328125 19.492188 19.402344 19.359375 19.585938 19.289062 C 19.859375 19.183594 20.128906 19.058594 20.386719 18.917969 C 20.648438 18.78125 20.898438 18.625 21.136719 18.453125 C 21.378906 18.28125 21.605469 18.097656 21.824219 17.898438 C 22.042969 17.699219 22.246094 17.484375 22.4375 17.261719 C 22.628906 17.035156 22.804688 16.800781 22.964844 16.554688 C 23.128906 16.308594 23.273438 16.050781 23.402344 15.785156 C 23.53125 15.519531 23.644531 15.25 23.742188 14.96875 C 23.839844 14.691406 23.917969 14.40625 23.976562 14.121094 C 24.039062 13.832031 24.082031 13.539062 24.105469 13.246094 C 24.128906 12.953125 24.136719 12.65625 24.125 12.363281 C 24.113281 12.066406 24.082031 11.773438 24.035156 11.484375 C 23.984375 11.191406 23.917969 10.90625 23.835938 10.621094 C 23.75 10.339844 23.648438 10.0625 23.53125 9.792969 C 23.414062 9.523438 23.277344 9.261719 23.128906 9.007812 C 22.976562 8.753906 22.8125 8.511719 22.628906 8.277344 C 22.449219 8.046875 22.253906 7.824219 22.042969 7.617188 C 21.835938 7.40625 21.617188 7.210938 21.382812 7.03125 C 21.148438 6.851562 20.90625 6.683594 20.652344 6.53125 C 20.398438 6.382812 20.136719 6.246094 19.867188 6.128906 C 19.597656 6.011719 19.320312 5.910156 19.039062 5.824219 C 18.753906 5.742188 18.46875 5.675781 18.175781 5.628906 C 17.886719 5.578125 17.59375 5.546875 17.296875 5.535156 C 17.003906 5.523438 16.710938 5.53125 16.414062 5.554688 C 16.121094 5.582031 15.832031 5.621094 15.542969 5.683594 C 15.253906 5.746094 14.96875 5.824219 14.691406 5.917969 C 14.410156 6.015625 14.140625 6.128906 13.875 6.257812 C 13.609375 6.386719 13.355469 6.535156 13.105469 6.695312 C 12.859375 6.859375 12.625 7.035156 12.398438 7.226562 C 12.175781 7.414062 11.960938 7.621094 11.761719 7.835938 C 11.5625 8.054688 11.378906 8.285156 11.207031 8.523438 C 11.035156 8.765625 10.882812 9.015625 10.742188 9.273438 C 10.601562 9.535156 10.476562 9.800781 10.371094 10.078125 C 10.339844 10.171875 10.277344 10.238281 10.183594 10.28125 C 10.09375 10.320312 10 10.324219 9.90625 10.289062 C 9.8125 10.253906 9.746094 10.1875 9.707031 10.09375 C 9.667969 10.003906 9.667969 9.910156 9.707031 9.820312 C 9.824219 9.515625 9.960938 9.222656 10.117188 8.9375 C 10.269531 8.652344 10.441406 8.375 10.628906 8.109375 C 10.816406 7.847656 11.019531 7.59375 11.238281 7.355469 C 11.457031 7.117188 11.691406 6.890625 11.941406 6.683594 C 12.1875 6.472656 12.445312 6.277344 12.71875 6.101562 C 12.988281 5.921875 13.269531 5.761719 13.5625 5.621094 C 13.851562 5.476562 14.152344 5.351562 14.457031 5.246094 C 14.765625 5.140625 15.078125 5.054688 15.394531 4.988281 C 15.714844 4.921875 16.035156 4.875 16.355469 4.847656 C 16.679688 4.820312 17.003906 4.8125 17.328125 4.824219 C 17.652344 4.839844 17.972656 4.871094 18.292969 4.925781 C 18.613281 4.976562 18.929688 5.050781 19.242188 5.144531 C 19.550781 5.234375 19.855469 5.347656 20.152344 5.476562 C 20.449219 5.609375 20.738281 5.757812 21.019531 5.921875 C 21.296875 6.089844 21.5625 6.269531 21.820312 6.46875 C 22.078125 6.667969 22.320312 6.882812 22.546875 7.113281 C 22.777344 7.34375 22.992188 7.585938 23.191406 7.839844 C 23.390625 8.097656 23.574219 8.363281 23.738281 8.644531 C 23.90625 8.921875 24.054688 9.210938 24.183594 9.507812 C 24.3125 9.804688 24.425781 10.109375 24.519531 10.421875 C 24.609375 10.730469 24.683594 11.046875 24.738281 11.367188 C 24.789062 11.6875 24.824219 12.007812 24.835938 12.332031 C 24.847656 12.65625 24.84375 12.980469 24.816406 13.304688 C 24.789062 13.628906 24.742188 13.949219 24.675781 14.265625 C 24.605469 14.582031 24.519531 14.894531 24.414062 15.203125 C 24.308594 15.507812 24.183594 15.808594 24.042969 16.101562 C 23.898438 16.390625 23.738281 16.671875 23.5625 16.945312 C 23.382812 17.214844 23.1875 17.476562 22.980469 17.722656 C 22.769531 17.96875 22.542969 18.203125 22.304688 18.421875 C 22.066406 18.640625 21.816406 18.84375 21.550781 19.03125 C 21.285156 19.222656 21.011719 19.390625 20.726562 19.546875 C 20.4375 19.699219 20.144531 19.835938 19.84375 19.953125 C 19.800781 19.96875 19.757812 19.976562 19.714844 19.976562 Z M 19.714844 19.976562 "/>
</g>
<path style=" stroke:none;fill-rule:nonzero;fill:rgb(100%,46.269226%,26.269531%);fill-opacity:1;" d="M 8.113281 16.921875 C 7.925781 16.921875 7.742188 16.882812 7.570312 16.8125 C 7.394531 16.738281 7.242188 16.636719 7.109375 16.503906 C 6.972656 16.371094 6.871094 16.214844 6.800781 16.042969 C 6.726562 15.867188 6.691406 15.683594 6.691406 15.496094 C 6.691406 15.308594 6.726562 15.125 6.800781 14.953125 C 6.871094 14.777344 6.972656 14.625 7.109375 14.488281 C 7.242188 14.355469 7.394531 14.253906 7.570312 14.179688 C 7.742188 14.109375 7.925781 14.074219 8.113281 14.074219 C 8.304688 14.074219 8.484375 14.109375 8.660156 14.179688 C 8.832031 14.253906 8.988281 14.355469 9.121094 14.488281 C 9.253906 14.625 9.359375 14.777344 9.429688 14.953125 C 9.503906 15.125 9.539062 15.308594 9.539062 15.496094 C 9.539062 15.683594 9.5 15.867188 9.429688 16.039062 C 9.355469 16.214844 9.253906 16.367188 9.121094 16.503906 C 8.988281 16.636719 8.832031 16.738281 8.660156 16.8125 C 8.484375 16.882812 8.304688 16.917969 8.113281 16.921875 Z M 8.113281 14.785156 C 7.917969 14.785156 7.75 14.855469 7.609375 14.992188 C 7.472656 15.132812 7.402344 15.300781 7.402344 15.496094 C 7.402344 15.691406 7.472656 15.859375 7.609375 16 C 7.75 16.136719 7.917969 16.207031 8.113281 16.207031 C 8.3125 16.207031 8.480469 16.136719 8.617188 16 C 8.757812 15.859375 8.828125 15.691406 8.828125 15.496094 C 8.824219 15.300781 8.757812 15.132812 8.617188 14.992188 C 8.480469 14.855469 8.3125 14.785156 8.113281 14.785156 Z M 8.113281 14.785156 "/>
<path style=" stroke:none;fill-rule:nonzero;fill:rgb(100%,46.269226%,26.269531%);fill-opacity:1;" d="M 17.011719 18.699219 C 16.824219 18.699219 16.640625 18.664062 16.46875 18.589844 C 16.292969 18.519531 16.140625 18.414062 16.003906 18.28125 C 15.871094 18.148438 15.769531 17.996094 15.695312 17.820312 C 15.625 17.644531 15.589844 17.464844 15.589844 17.277344 C 15.589844 17.085938 15.625 16.90625 15.695312 16.730469 C 15.769531 16.554688 15.871094 16.402344 16.003906 16.269531 C 16.140625 16.136719 16.292969 16.03125 16.46875 15.960938 C 16.640625 15.886719 16.824219 15.851562 17.011719 15.851562 C 17.199219 15.851562 17.382812 15.886719 17.558594 15.960938 C 17.730469 16.03125 17.886719 16.136719 18.019531 16.269531 C 18.152344 16.402344 18.253906 16.554688 18.328125 16.730469 C 18.398438 16.90625 18.4375 17.085938 18.4375 17.277344 C 18.4375 17.464844 18.398438 17.644531 18.328125 17.820312 C 18.253906 17.996094 18.152344 18.148438 18.019531 18.28125 C 17.886719 18.414062 17.730469 18.519531 17.558594 18.589844 C 17.382812 18.664062 17.199219 18.699219 17.011719 18.699219 Z M 17.011719 16.5625 C 16.816406 16.5625 16.648438 16.632812 16.507812 16.773438 C 16.371094 16.910156 16.300781 17.078125 16.300781 17.277344 C 16.300781 17.472656 16.371094 17.640625 16.507812 17.777344 C 16.648438 17.917969 16.816406 17.988281 17.011719 17.988281 C 17.207031 17.988281 17.375 17.917969 17.515625 17.777344 C 17.65625 17.640625 17.722656 17.472656 17.722656 17.277344 C 17.722656 17.078125 17.65625 16.910156 17.515625 16.773438 C 17.375 16.632812 17.207031 16.5625 17.011719 16.5625 Z M 17.011719 16.5625 "/>
<path style=" stroke:none;fill-rule:nonzero;fill:rgb(100%,46.269226%,26.269531%);fill-opacity:1;" d="M 19.859375 10.15625 C 19.671875 10.15625 19.488281 10.121094 19.316406 10.050781 C 19.140625 9.976562 18.988281 9.875 18.851562 9.742188 C 18.71875 9.605469 18.617188 9.453125 18.542969 9.277344 C 18.472656 9.105469 18.4375 8.921875 18.4375 8.734375 C 18.4375 8.546875 18.472656 8.363281 18.542969 8.1875 C 18.617188 8.015625 18.71875 7.859375 18.851562 7.726562 C 18.988281 7.59375 19.140625 7.492188 19.316406 7.417969 C 19.488281 7.347656 19.671875 7.308594 19.859375 7.308594 C 20.046875 7.308594 20.230469 7.347656 20.40625 7.417969 C 20.578125 7.492188 20.734375 7.59375 20.867188 7.726562 C 21 7.859375 21.101562 8.015625 21.175781 8.1875 C 21.246094 8.363281 21.285156 8.546875 21.285156 8.734375 C 21.28125 8.921875 21.246094 9.105469 21.175781 9.277344 C 21.101562 9.453125 21 9.605469 20.867188 9.738281 C 20.730469 9.875 20.578125 9.976562 20.402344 10.050781 C 20.230469 10.121094 20.046875 10.15625 19.859375 10.15625 Z M 19.859375 8.023438 C 19.664062 8.023438 19.496094 8.089844 19.355469 8.230469 C 19.21875 8.371094 19.148438 8.539062 19.148438 8.734375 C 19.148438 8.929688 19.21875 9.097656 19.355469 9.238281 C 19.496094 9.375 19.664062 9.445312 19.859375 9.445312 C 20.054688 9.445312 20.222656 9.375 20.363281 9.238281 C 20.5 9.097656 20.570312 8.929688 20.570312 8.734375 C 20.570312 8.539062 20.5 8.371094 20.363281 8.230469 C 20.222656 8.09375 20.054688 8.023438 19.859375 8.023438 Z M 19.859375 8.023438 "/>
<path style=" stroke:none;fill-rule:nonzero;fill:rgb(100%,46.269226%,26.269531%);fill-opacity:1;" d="M 12.742188 17.988281 C 12.601562 17.988281 12.464844 17.960938 12.332031 17.90625 C 12.203125 17.851562 12.085938 17.773438 11.988281 17.675781 C 11.886719 17.574219 11.808594 17.460938 11.753906 17.328125 C 11.699219 17.199219 11.671875 17.0625 11.671875 16.921875 C 11.671875 16.777344 11.699219 16.640625 11.753906 16.511719 C 11.808594 16.378906 11.886719 16.265625 11.988281 16.164062 C 12.085938 16.066406 12.203125 15.988281 12.332031 15.933594 C 12.464844 15.878906 12.601562 15.851562 12.742188 15.851562 C 12.882812 15.851562 13.019531 15.878906 13.148438 15.933594 C 13.28125 15.988281 13.394531 16.066406 13.496094 16.164062 C 13.597656 16.265625 13.671875 16.378906 13.726562 16.511719 C 13.78125 16.640625 13.808594 16.777344 13.808594 16.921875 C 13.808594 17.0625 13.78125 17.199219 13.726562 17.328125 C 13.671875 17.460938 13.597656 17.574219 13.496094 17.675781 C 13.394531 17.773438 13.28125 17.851562 13.148438 17.90625 C 13.019531 17.960938 12.882812 17.988281 12.742188 17.988281 Z M 12.742188 16.5625 C 12.644531 16.5625 12.558594 16.597656 12.488281 16.667969 C 12.421875 16.738281 12.386719 16.820312 12.386719 16.921875 C 12.386719 17.019531 12.421875 17.101562 12.488281 17.171875 C 12.558594 17.242188 12.644531 17.277344 12.742188 17.277344 C 12.839844 17.277344 12.921875 17.242188 12.992188 17.171875 C 13.0625 17.101562 13.097656 17.019531 13.097656 16.921875 C 13.097656 16.820312 13.0625 16.738281 12.992188 16.667969 C 12.921875 16.597656 12.839844 16.5625 12.742188 16.5625 Z M 12.742188 16.5625 "/>
<path style=" stroke:none;fill-rule:nonzero;fill:rgb(100%,46.269226%,26.269531%);fill-opacity:1;" d="M 13.097656 14.074219 C 12.957031 14.074219 12.820312 14.046875 12.6875 13.992188 C 12.558594 13.9375 12.441406 13.859375 12.34375 13.761719 C 12.242188 13.660156 12.164062 13.542969 12.109375 13.414062 C 12.054688 13.28125 12.03125 13.148438 12.03125 13.003906 C 12.03125 12.863281 12.054688 12.726562 12.109375 12.597656 C 12.164062 12.464844 12.242188 12.351562 12.34375 12.25 C 12.441406 12.148438 12.558594 12.074219 12.6875 12.019531 C 12.820312 11.964844 12.957031 11.9375 13.097656 11.9375 C 13.238281 11.9375 13.375 11.964844 13.507812 12.019531 C 13.636719 12.074219 13.753906 12.148438 13.851562 12.25 C 13.953125 12.351562 14.03125 12.464844 14.082031 12.597656 C 14.136719 12.726562 14.164062 12.863281 14.164062 13.003906 C 14.164062 13.144531 14.136719 13.28125 14.082031 13.414062 C 14.027344 13.542969 13.953125 13.660156 13.851562 13.757812 C 13.75 13.859375 13.636719 13.9375 13.503906 13.992188 C 13.375 14.046875 13.238281 14.074219 13.097656 14.074219 Z M 13.097656 12.648438 C 13 12.648438 12.914062 12.683594 12.84375 12.753906 C 12.777344 12.824219 12.742188 12.90625 12.742188 13.003906 C 12.742188 13.101562 12.777344 13.1875 12.84375 13.257812 C 12.914062 13.324219 13 13.359375 13.097656 13.359375 C 13.195312 13.359375 13.28125 13.324219 13.347656 13.257812 C 13.417969 13.1875 13.453125 13.101562 13.453125 13.003906 C 13.453125 12.90625 13.417969 12.824219 13.347656 12.753906 C 13.28125 12.683594 13.195312 12.648438 13.097656 12.648438 Z M 13.097656 12.648438 "/>
<path style=" stroke:none;fill-rule:nonzero;fill:rgb(100%,46.269226%,26.269531%);fill-opacity:1;" d="M 15.945312 8.378906 C 15.804688 8.378906 15.667969 8.351562 15.535156 8.296875 C 15.40625 8.242188 15.289062 8.164062 15.191406 8.066406 C 15.089844 7.964844 15.011719 7.851562 14.957031 7.71875 C 14.902344 7.589844 14.875 7.453125 14.875 7.308594 C 14.875 7.167969 14.902344 7.03125 14.957031 6.902344 C 15.011719 6.769531 15.089844 6.65625 15.191406 6.554688 C 15.289062 6.457031 15.40625 6.378906 15.535156 6.324219 C 15.667969 6.269531 15.804688 6.242188 15.945312 6.242188 C 16.085938 6.242188 16.222656 6.269531 16.351562 6.324219 C 16.484375 6.378906 16.597656 6.457031 16.699219 6.554688 C 16.800781 6.65625 16.875 6.769531 16.929688 6.902344 C 16.984375 7.03125 17.011719 7.167969 17.011719 7.308594 C 17.011719 7.453125 16.984375 7.589844 16.929688 7.71875 C 16.875 7.847656 16.800781 7.964844 16.699219 8.066406 C 16.597656 8.164062 16.484375 8.242188 16.351562 8.296875 C 16.222656 8.351562 16.085938 8.378906 15.945312 8.378906 Z M 15.945312 6.953125 C 15.847656 6.953125 15.761719 6.988281 15.691406 7.058594 C 15.625 7.128906 15.589844 7.210938 15.589844 7.308594 C 15.589844 7.410156 15.625 7.492188 15.691406 7.5625 C 15.761719 7.632812 15.847656 7.667969 15.945312 7.667969 C 16.042969 7.667969 16.125 7.632812 16.195312 7.5625 C 16.265625 7.492188 16.300781 7.410156 16.300781 7.308594 C 16.300781 7.210938 16.265625 7.128906 16.195312 7.058594 C 16.125 6.988281 16.042969 6.953125 15.945312 6.953125 Z M 15.945312 6.953125 "/>
<path style=" stroke:none;fill-rule:nonzero;fill:rgb(100%,46.269226%,26.269531%);fill-opacity:1;" d="M 22.351562 13.359375 C 22.210938 13.359375 22.074219 13.332031 21.941406 13.28125 C 21.8125 13.226562 21.695312 13.148438 21.597656 13.046875 C 21.496094 12.949219 21.417969 12.832031 21.363281 12.703125 C 21.308594 12.570312 21.285156 12.433594 21.285156 12.292969 C 21.285156 12.152344 21.308594 12.015625 21.363281 11.882812 C 21.417969 11.753906 21.496094 11.636719 21.597656 11.539062 C 21.695312 11.4375 21.8125 11.359375 21.941406 11.304688 C 22.074219 11.253906 22.210938 11.226562 22.351562 11.226562 C 22.492188 11.226562 22.628906 11.253906 22.757812 11.304688 C 22.890625 11.359375 23.007812 11.4375 23.105469 11.539062 C 23.207031 11.636719 23.285156 11.753906 23.335938 11.882812 C 23.390625 12.015625 23.417969 12.152344 23.417969 12.292969 C 23.417969 12.433594 23.390625 12.570312 23.335938 12.703125 C 23.28125 12.832031 23.207031 12.949219 23.105469 13.046875 C 23.003906 13.148438 22.890625 13.226562 22.757812 13.277344 C 22.628906 13.332031 22.492188 13.359375 22.351562 13.359375 Z M 22.351562 11.9375 C 22.253906 11.9375 22.167969 11.972656 22.097656 12.042969 C 22.03125 12.109375 21.996094 12.195312 21.996094 12.292969 C 21.996094 12.390625 22.03125 12.476562 22.097656 12.542969 C 22.167969 12.613281 22.253906 12.648438 22.351562 12.648438 C 22.449219 12.648438 22.53125 12.613281 22.601562 12.542969 C 22.671875 12.476562 22.707031 12.390625 22.707031 12.292969 C 22.707031 12.195312 22.671875 12.109375 22.601562 12.042969 C 22.53125 11.972656 22.449219 11.9375 22.351562 11.9375 Z M 22.351562 11.9375 "/>
<path style=" stroke:none;fill-rule:nonzero;fill:rgb(100%,46.269226%,26.269531%);fill-opacity:1;" d="M 13.808594 22.96875 C 13.574219 22.96875 13.347656 22.925781 13.128906 22.835938 C 12.910156 22.746094 12.71875 22.617188 12.550781 22.449219 C 12.382812 22.28125 12.253906 22.089844 12.164062 21.871094 C 12.074219 21.652344 12.03125 21.425781 12.03125 21.191406 C 12.03125 20.953125 12.074219 20.726562 12.164062 20.511719 C 12.253906 20.292969 12.382812 20.097656 12.550781 19.933594 C 12.71875 19.765625 12.910156 19.636719 13.128906 19.546875 C 13.347656 19.457031 13.574219 19.410156 13.808594 19.410156 C 14.046875 19.410156 14.273438 19.457031 14.488281 19.546875 C 14.707031 19.636719 14.902344 19.765625 15.066406 19.933594 C 15.234375 20.097656 15.363281 20.292969 15.453125 20.511719 C 15.542969 20.726562 15.589844 20.953125 15.589844 21.191406 C 15.589844 21.425781 15.542969 21.652344 15.453125 21.871094 C 15.363281 22.089844 15.234375 22.28125 15.066406 22.449219 C 14.898438 22.617188 14.707031 22.742188 14.488281 22.835938 C 14.273438 22.925781 14.046875 22.96875 13.808594 22.96875 Z M 13.808594 20.125 C 13.667969 20.125 13.53125 20.148438 13.402344 20.203125 C 13.269531 20.257812 13.152344 20.335938 13.054688 20.4375 C 12.953125 20.535156 12.875 20.652344 12.824219 20.78125 C 12.769531 20.914062 12.742188 21.050781 12.742188 21.191406 C 12.742188 21.332031 12.769531 21.46875 12.824219 21.597656 C 12.875 21.730469 12.953125 21.847656 13.054688 21.945312 C 13.152344 22.046875 13.269531 22.125 13.402344 22.175781 C 13.53125 22.230469 13.667969 22.257812 13.808594 22.257812 C 13.949219 22.257812 14.085938 22.230469 14.21875 22.175781 C 14.347656 22.125 14.464844 22.046875 14.5625 21.945312 C 14.664062 21.847656 14.742188 21.730469 14.796875 21.597656 C 14.851562 21.46875 14.875 21.332031 14.875 21.191406 C 14.875 21.050781 14.847656 20.914062 14.796875 20.78125 C 14.742188 20.652344 14.664062 20.535156 14.5625 20.4375 C 14.464844 20.335938 14.347656 20.257812 14.21875 20.203125 C 14.085938 20.152344 13.949219 20.125 13.808594 20.125 Z M 13.808594 20.125 "/>
</g>
</svg>
