<?xml version="1.0" encoding="UTF-8"?>
<svg xmlns="http://www.w3.org/2000/svg" xmlns:xlink="http://www.w3.org/1999/xlink" width="30pt" height="30.000001pt" viewBox="0 0 30 30.000001" version="1.2">
<defs>
<clipPath id="clip1">
  <path d="M 4.703125 5.183594 L 15 5.183594 L 15 24.054688 L 4.703125 24.054688 Z M 4.703125 5.183594 "/>
</clipPath>
<clipPath id="clip2">
  <path d="M 14 12 L 25.023438 12 L 25.023438 24 L 14 24 Z M 14 12 "/>
</clipPath>
</defs>
<g id="surface1">
<path style=" stroke:none;fill-rule:nonzero;fill:rgb(100%,46.269226%,26.269531%);fill-opacity:1;" d="M 23.265625 12.832031 C 23.789062 12.832031 24.214844 12.390625 24.214844 11.855469 C 24.214844 11.320312 23.789062 10.882812 23.265625 10.882812 C 22.742188 10.882812 22.3125 11.320312 22.3125 11.855469 C 22.3125 12.390625 22.742188 12.832031 23.265625 12.832031 Z M 23.265625 11.53125 C 23.4375 11.53125 23.582031 11.675781 23.582031 11.855469 C 23.582031 12.035156 23.4375 12.179688 23.265625 12.179688 C 23.089844 12.179688 22.949219 12.035156 22.949219 11.855469 C 22.949219 11.675781 23.089844 11.53125 23.265625 11.53125 Z M 23.265625 11.53125 "/>
<path style=" stroke:none;fill-rule:nonzero;fill:rgb(100%,46.269226%,26.269531%);fill-opacity:1;" d="M 19.777344 12.832031 C 20.476562 12.832031 21.046875 12.246094 21.046875 11.53125 C 21.046875 10.816406 20.476562 10.230469 19.777344 10.230469 C 19.078125 10.230469 18.507812 10.816406 18.507812 11.53125 C 18.507812 12.246094 19.078125 12.832031 19.777344 12.832031 Z M 19.777344 10.882812 C 20.125 10.882812 20.410156 11.171875 20.410156 11.53125 C 20.410156 11.890625 20.125 12.179688 19.777344 12.179688 C 19.429688 12.179688 19.144531 11.890625 19.144531 11.53125 C 19.144531 11.171875 19.429688 10.882812 19.777344 10.882812 Z M 19.777344 10.882812 "/>
<g clip-path="url(#clip1)" clip-rule="nonzero">
<path style=" stroke:none;fill-rule:nonzero;fill:rgb(100%,46.269226%,26.269531%);fill-opacity:1;" d="M 4.84375 22.273438 C 6.699219 23.671875 8.679688 24.042969 10.28125 24.042969 C 12.089844 24.042969 13.40625 23.574219 13.5 23.539062 C 13.578125 23.507812 13.640625 23.457031 13.675781 23.378906 C 15.054688 20.664062 14.957031 18.910156 14.6875 16.714844 C 14.515625 15.367188 13.925781 14.878906 13.121094 14.699219 L 13.121094 14.457031 C 13.121094 14.097656 12.929688 13.789062 12.644531 13.609375 L 12.644531 6.167969 C 12.644531 5.632812 12.214844 5.195312 11.691406 5.195312 C 11.167969 5.195312 10.742188 5.632812 10.742188 6.167969 L 10.742188 13.609375 C 10.457031 13.773438 10.265625 14.097656 10.265625 14.457031 L 10.265625 14.667969 C 8.761719 14.847656 8.472656 15.609375 8.425781 16.375 C 8.140625 20.421875 5.050781 21.671875 4.921875 21.71875 C 4.8125 21.769531 4.734375 21.867188 4.71875 21.980469 C 4.703125 22.09375 4.75 22.207031 4.84375 22.273438 Z M 11.375 6.167969 C 11.375 5.988281 11.519531 5.84375 11.691406 5.84375 C 11.867188 5.84375 12.007812 5.988281 12.007812 6.167969 L 12.007812 13.480469 L 11.375 13.480469 Z M 10.898438 14.457031 C 10.898438 14.277344 11.042969 14.132812 11.21875 14.132812 L 12.167969 14.132812 C 12.34375 14.132812 12.484375 14.277344 12.484375 14.457031 L 12.484375 14.636719 C 12.167969 14.617188 11.851562 14.617188 11.503906 14.617188 C 11.328125 14.617188 11.136719 14.617188 10.949219 14.617188 C 10.933594 14.617188 10.914062 14.617188 10.898438 14.617188 Z M 9.0625 16.40625 C 9.09375 15.917969 9.140625 15.269531 10.949219 15.269531 C 11.136719 15.269531 11.328125 15.269531 11.503906 15.269531 C 13.167969 15.253906 13.863281 15.234375 14.054688 16.796875 C 14.324219 18.910156 14.402344 20.484375 13.167969 22.957031 C 12.800781 23.070312 11.628906 23.394531 10.140625 23.378906 C 10.742188 22.90625 11.597656 22.0625 12.136719 20.746094 C 12.199219 20.582031 12.121094 20.386719 11.960938 20.324219 C 11.804688 20.257812 11.613281 20.339844 11.550781 20.5 C 10.773438 22.402344 9.1875 23.246094 9.15625 23.265625 C 9.125 23.28125 9.109375 23.296875 9.09375 23.3125 C 8.695312 23.265625 8.269531 23.183594 7.855469 23.070312 C 8.347656 22.710938 9.140625 22.027344 9.742188 20.957031 C 9.820312 20.792969 9.773438 20.597656 9.632812 20.519531 C 9.472656 20.4375 9.28125 20.484375 9.203125 20.632812 C 8.378906 22.109375 7.128906 22.777344 7.109375 22.777344 C 7.09375 22.777344 7.09375 22.792969 7.078125 22.792969 C 6.605469 22.613281 6.128906 22.371094 5.667969 22.0625 C 6.667969 21.492188 8.808594 19.882812 9.0625 16.40625 Z M 9.0625 16.40625 "/>
</g>
<path style=" stroke:none;fill-rule:nonzero;fill:rgb(100%,46.269226%,26.269531%);fill-opacity:1;" d="M 10.425781 16.570312 L 12.328125 16.570312 C 12.5 16.570312 12.644531 16.421875 12.644531 16.242188 C 12.644531 16.066406 12.5 15.917969 12.328125 15.917969 L 10.425781 15.917969 C 10.25 15.917969 10.105469 16.066406 10.105469 16.242188 C 10.105469 16.421875 10.25 16.570312 10.425781 16.570312 Z M 10.425781 16.570312 "/>
<g clip-path="url(#clip2)" clip-rule="nonzero">
<path style=" stroke:none;fill-rule:nonzero;fill:rgb(100%,46.269226%,26.269531%);fill-opacity:1;" d="M 15.324219 15.285156 L 15.734375 16.082031 L 16.179688 21.785156 C 16.273438 22.957031 17.242188 23.882812 18.398438 23.882812 L 21.488281 23.882812 C 22.628906 23.882812 23.613281 22.957031 23.707031 21.785156 L 24.136719 16.375 C 24.183594 16.308594 24.214844 16.226562 24.261719 16.164062 L 24.738281 15.140625 C 24.914062 14.960938 25.023438 14.714844 25.023438 14.457031 C 25.023438 13.921875 24.597656 13.480469 24.074219 13.480469 L 22.488281 13.480469 C 22.488281 12.945312 22.058594 12.507812 21.535156 12.507812 C 21.015625 12.507812 20.585938 12.945312 20.585938 13.480469 L 18.9375 13.480469 C 18.792969 12.929688 18.304688 12.507812 17.714844 12.507812 C 17.128906 12.507812 16.636719 12.929688 16.496094 13.480469 L 15.8125 13.480469 C 15.292969 13.480469 14.863281 13.921875 14.863281 14.457031 C 14.863281 14.796875 15.054688 15.105469 15.324219 15.285156 Z M 16.320312 15.429688 L 17.398438 15.429688 C 17.398438 15.902344 17.398438 16.4375 17.398438 16.976562 C 16.957031 16.683594 16.589844 16.324219 16.351562 15.917969 Z M 23.503906 16.179688 C 23.234375 16.550781 22.882812 16.878906 22.488281 17.152344 C 22.488281 16.570312 22.488281 15.96875 22.488281 15.429688 L 23.566406 15.429688 Z M 24.058594 14.132812 C 24.230469 14.132812 24.375 14.277344 24.375 14.457031 C 24.375 14.636719 24.230469 14.78125 24.058594 14.78125 L 22.472656 14.78125 C 22.472656 14.519531 22.472656 14.292969 22.472656 14.132812 Z M 22.171875 20.355469 C 22.34375 20.355469 22.488281 20.207031 22.488281 20.03125 C 22.488281 20.015625 22.488281 19.054688 22.488281 17.886719 C 22.820312 17.691406 23.136719 17.460938 23.421875 17.203125 L 23.074219 21.71875 C 23.011719 22.566406 22.3125 23.214844 21.488281 23.214844 L 18.382812 23.214844 C 17.558594 23.214844 16.859375 22.566406 16.796875 21.71875 L 16.433594 17.007812 C 16.71875 17.285156 17.050781 17.511719 17.398438 17.722656 C 17.398438 18.988281 17.398438 20.0625 17.414062 20.078125 C 17.445312 20.226562 17.574219 20.355469 17.730469 20.355469 C 17.796875 20.355469 17.8125 20.371094 17.890625 20.4375 C 18 20.535156 18.160156 20.679688 18.460938 20.679688 C 18.761719 20.679688 18.921875 20.535156 19.03125 20.4375 C 19.113281 20.371094 19.128906 20.355469 19.191406 20.355469 C 19.253906 20.355469 19.269531 20.371094 19.347656 20.4375 C 19.460938 20.535156 19.617188 20.679688 19.917969 20.679688 C 20.222656 20.679688 20.378906 20.535156 20.492188 20.4375 C 20.570312 20.371094 20.585938 20.355469 20.648438 20.355469 C 20.710938 20.355469 20.726562 20.371094 20.808594 20.4375 C 20.917969 20.535156 21.078125 20.679688 21.378906 20.679688 C 21.679688 20.679688 21.839844 20.535156 21.949219 20.4375 C 22.089844 20.371094 22.109375 20.355469 22.171875 20.355469 Z M 18.035156 19.753906 L 18.035156 18.03125 C 18.746094 18.339844 19.523438 18.503906 20.171875 18.503906 C 20.726562 18.503906 21.300781 18.390625 21.839844 18.175781 L 21.839844 19.769531 C 21.726562 19.820312 21.648438 19.882812 21.601562 19.933594 C 21.519531 19.996094 21.503906 20.015625 21.441406 20.015625 C 21.378906 20.015625 21.363281 19.996094 21.28125 19.933594 C 21.171875 19.835938 21.015625 19.6875 20.710938 19.6875 C 20.410156 19.6875 20.253906 19.835938 20.140625 19.933594 C 20.0625 19.996094 20.046875 20.015625 19.984375 20.015625 C 19.917969 20.015625 19.902344 19.996094 19.824219 19.933594 C 19.714844 19.835938 19.554688 19.6875 19.253906 19.6875 C 18.953125 19.6875 18.792969 19.835938 18.683594 19.933594 C 18.605469 19.996094 18.589844 20.015625 18.523438 20.015625 C 18.460938 20.015625 18.445312 19.996094 18.367188 19.933594 C 18.238281 19.882812 18.160156 19.820312 18.035156 19.753906 Z M 21.519531 13.15625 C 21.695312 13.15625 21.839844 13.300781 21.839844 13.480469 L 21.203125 13.480469 C 21.203125 13.300781 21.347656 13.15625 21.519531 13.15625 Z M 21.839844 14.132812 L 21.839844 17.496094 C 21.316406 17.722656 20.746094 17.867188 20.171875 17.867188 C 19.507812 17.867188 18.730469 17.671875 18.035156 17.332031 L 18.035156 14.132812 Z M 17.714844 13.15625 C 17.953125 13.15625 18.144531 13.285156 18.253906 13.480469 L 17.160156 13.480469 C 17.273438 13.285156 17.480469 13.15625 17.714844 13.15625 Z M 15.8125 14.132812 L 17.398438 14.132812 C 17.398438 14.292969 17.398438 14.519531 17.398438 14.78125 L 15.8125 14.78125 C 15.640625 14.78125 15.496094 14.636719 15.496094 14.457031 C 15.496094 14.277344 15.640625 14.132812 15.8125 14.132812 Z M 15.8125 14.132812 "/>
</g>
</g>
</svg>
