<?xml version="1.0" encoding="UTF-8"?>
<svg xmlns="http://www.w3.org/2000/svg" xmlns:xlink="http://www.w3.org/1999/xlink" width="30pt" height="30.000001pt" viewBox="0 0 30 30.000001" version="1.2">
<defs>
<clipPath id="clip1">
  <path d="M 9 4.300781 L 13 4.300781 L 13 8 L 9 8 Z M 9 4.300781 "/>
</clipPath>
<clipPath id="clip2">
  <path d="M 14 4.300781 L 22 4.300781 L 22 11 L 14 11 Z M 14 4.300781 "/>
</clipPath>
<clipPath id="clip3">
  <path d="M 4.859375 8 L 12 8 L 12 24.621094 L 4.859375 24.621094 Z M 4.859375 8 "/>
</clipPath>
<clipPath id="clip4">
  <path d="M 15 16 L 25.183594 16 L 25.183594 24.621094 L 15 24.621094 Z M 15 16 "/>
</clipPath>
<clipPath id="clip5">
  <path d="M 11 23 L 17 23 L 17 24.621094 L 11 24.621094 Z M 11 23 "/>
</clipPath>
</defs>
<g id="surface1">
<g clip-path="url(#clip1)" clip-rule="nonzero">
<path style=" stroke:none;fill-rule:nonzero;fill:rgb(100%,46.269226%,26.269531%);fill-opacity:1;" d="M 11.554688 5.492188 C 11.953125 5.855469 12.160156 6.453125 12.160156 7.253906 C 12.160156 7.429688 12.300781 7.570312 12.476562 7.570312 C 12.648438 7.570312 12.792969 7.429688 12.792969 7.253906 C 12.792969 6.261719 12.523438 5.507812 11.96875 5.019531 C 11.222656 4.34375 10.269531 4.421875 10.222656 4.421875 C 10.046875 4.4375 9.921875 4.59375 9.9375 4.765625 C 9.953125 4.941406 10.113281 5.066406 10.285156 5.050781 C 10.285156 5.050781 11.015625 5.003906 11.554688 5.492188 Z M 11.554688 5.492188 "/>
</g>
<path style=" stroke:none;fill-rule:nonzero;fill:rgb(100%,46.269226%,26.269531%);fill-opacity:1;" d="M 13.363281 6.484375 C 13.949219 6.671875 14.457031 7.019531 14.839844 7.476562 C 14.949219 7.289062 15.0625 7.097656 15.1875 6.910156 C 14.664062 6.359375 13.964844 5.964844 13.1875 5.773438 C 13.269531 5.996094 13.332031 6.230469 13.363281 6.484375 Z M 13.363281 6.484375 "/>
<path style=" stroke:none;fill-rule:nonzero;fill:rgb(100%,46.269226%,26.269531%);fill-opacity:1;" d="M 20.152344 8.59375 C 20.21875 8.40625 20.203125 8.183594 20.105469 7.996094 C 19.882812 7.554688 19.265625 7.304688 18.933594 7.191406 C 18.632812 7.097656 18.328125 7.050781 18.074219 7.050781 C 17.378906 7.050781 17.171875 7.445312 17.125 7.617188 C 17.058594 7.808594 17.078125 8.027344 17.171875 8.214844 C 17.394531 8.65625 18.011719 8.910156 18.34375 9.019531 C 18.648438 9.113281 18.949219 9.160156 19.203125 9.160156 C 19.882812 9.144531 20.089844 8.75 20.152344 8.59375 Z M 17.710938 7.808594 C 17.742188 7.726562 17.871094 7.679688 18.058594 7.679688 C 18.25 7.679688 18.472656 7.710938 18.726562 7.792969 C 19.234375 7.949219 19.597656 8.214844 19.550781 8.375 C 19.519531 8.453125 19.390625 8.5 19.203125 8.5 C 19.011719 8.5 18.789062 8.46875 18.535156 8.390625 C 18.011719 8.230469 17.648438 7.980469 17.710938 7.808594 Z M 17.710938 7.808594 "/>
<path style=" stroke:none;fill-rule:nonzero;fill:rgb(100%,46.269226%,26.269531%);fill-opacity:1;" d="M 17.058594 10.042969 C 16.585938 10.042969 16.332031 10.230469 16.203125 10.40625 C 16.28125 10.390625 16.363281 10.390625 16.472656 10.390625 C 16.871094 10.390625 17.09375 10.5 17.265625 10.578125 C 17.410156 10.65625 17.519531 10.703125 17.773438 10.703125 C 18.027344 10.703125 18.140625 10.65625 18.28125 10.578125 C 18.359375 10.546875 18.441406 10.5 18.550781 10.46875 C 18.328125 10.34375 18.089844 10.25 17.917969 10.199219 C 17.617188 10.105469 17.3125 10.042969 17.058594 10.042969 Z M 17.058594 10.042969 "/>
<g clip-path="url(#clip2)" clip-rule="nonzero">
<path style=" stroke:none;fill-rule:nonzero;fill:rgb(100%,46.269226%,26.269531%);fill-opacity:1;" d="M 20.882812 10.578125 C 20.996094 10.515625 21.136719 10.453125 21.328125 10.421875 C 21.660156 8.40625 21.550781 6.65625 21.011719 5.585938 C 20.726562 5.035156 20.3125 4.65625 19.804688 4.5 C 19.628906 4.453125 19.457031 4.421875 19.265625 4.421875 C 17.28125 4.421875 15.316406 7.398438 14.15625 10.421875 C 14.378906 10.453125 14.539062 10.53125 14.664062 10.59375 C 14.695312 10.609375 14.726562 10.625 14.761719 10.640625 C 15.996094 7.367188 17.871094 5.050781 19.265625 5.050781 C 19.390625 5.050781 19.503906 5.066406 19.613281 5.097656 C 20.804688 5.476562 21.167969 7.773438 20.644531 10.671875 C 20.726562 10.65625 20.804688 10.625 20.882812 10.578125 Z M 20.882812 10.578125 "/>
</g>
<path style=" stroke:none;fill-rule:nonzero;fill:rgb(100%,46.269226%,26.269531%);fill-opacity:1;" d="M 8.683594 8.042969 L 9.300781 8.042969 C 9.335938 8.042969 9.351562 8.042969 9.382812 8.042969 C 9.808594 7.269531 10.539062 6.671875 11.414062 6.4375 C 11.347656 6.230469 11.253906 6.074219 11.128906 5.949219 C 11.09375 5.917969 11.078125 5.902344 11.046875 5.886719 C 9.984375 6.246094 9.128906 7.035156 8.683594 8.042969 Z M 8.683594 8.042969 "/>
<g clip-path="url(#clip3)" clip-rule="nonzero">
<path style=" stroke:none;fill-rule:nonzero;fill:rgb(100%,46.269226%,26.269531%);fill-opacity:1;" d="M 5.496094 24.582031 L 10.570312 24.582031 C 10.921875 24.582031 11.207031 24.296875 11.207031 23.949219 L 11.207031 14.042969 C 11.207031 13.648438 9.730469 11.003906 9.539062 10.515625 C 9.777344 10.421875 9.9375 10.199219 9.9375 9.933594 L 9.9375 9.304688 C 9.9375 8.957031 9.652344 8.671875 9.300781 8.671875 L 6.765625 8.671875 C 6.414062 8.671875 6.128906 8.957031 6.128906 9.304688 L 6.128906 9.933594 C 6.128906 10.199219 6.304688 10.4375 6.542969 10.515625 C 6.335938 11.019531 4.859375 13.648438 4.859375 14.042969 L 4.859375 23.949219 C 4.859375 24.296875 5.144531 24.582031 5.496094 24.582031 Z M 6.765625 9.304688 L 9.300781 9.304688 L 9.300781 9.933594 L 6.765625 9.933594 Z M 5.496094 14.042969 C 5.496094 13.539062 6.828125 11.679688 7.191406 10.5625 L 8.875 10.5625 C 9.253906 11.664062 10.570312 13.539062 10.570312 14.042969 L 10.570312 23.949219 L 5.496094 23.949219 Z M 5.496094 14.042969 "/>
</g>
<path style=" stroke:none;fill-rule:nonzero;fill:rgb(100%,46.269226%,26.269531%);fill-opacity:1;" d="M 15.015625 19.035156 L 15.015625 15.128906 C 15.015625 14.4375 14.441406 13.871094 13.746094 13.871094 C 13.046875 13.871094 12.476562 14.4375 12.476562 15.128906 L 12.476562 20.484375 C 12.476562 21.179688 13.046875 21.746094 13.746094 21.746094 C 14.109375 21.746094 14.425781 21.589844 14.664062 21.351562 C 14.601562 20.925781 14.554688 20.46875 14.539062 19.980469 L 14.539062 19.902344 C 14.523438 19.652344 14.617188 19.382812 14.792969 19.195312 C 14.855469 19.132812 14.933594 19.082031 15.015625 19.035156 Z M 14.378906 20.484375 C 14.378906 20.832031 14.09375 21.117188 13.746094 21.117188 C 13.394531 21.117188 13.109375 20.832031 13.109375 20.484375 L 13.109375 15.128906 C 13.109375 14.785156 13.394531 14.5 13.746094 14.5 C 14.09375 14.5 14.378906 14.785156 14.378906 15.128906 Z M 14.378906 20.484375 "/>
<path style=" stroke:none;fill-rule:nonzero;fill:rgb(100%,46.269226%,26.269531%);fill-opacity:1;" d="M 19.136719 17.242188 L 19.136719 15.128906 C 19.136719 14.4375 18.566406 13.871094 17.871094 13.871094 C 17.171875 13.871094 16.601562 14.4375 16.601562 15.128906 L 16.601562 19.050781 C 16.789062 19.082031 17.011719 19.132812 17.234375 19.195312 L 17.234375 15.128906 C 17.234375 14.785156 17.519531 14.5 17.871094 14.5 C 18.21875 14.5 18.503906 14.785156 18.503906 15.128906 L 18.503906 18.234375 C 18.710938 17.855469 18.933594 17.507812 19.136719 17.242188 Z M 19.136719 17.242188 "/>
<g clip-path="url(#clip4)" clip-rule="nonzero">
<path style=" stroke:none;fill-rule:nonzero;fill:rgb(100%,46.269226%,26.269531%);fill-opacity:1;" d="M 25.167969 19.964844 L 25.167969 19.886719 C 25.183594 19.792969 25.136719 19.699219 25.070312 19.636719 C 25.007812 19.570312 24.914062 19.539062 24.816406 19.539062 C 24.515625 19.554688 23.484375 19.652344 22.421875 20.078125 C 22.296875 19.132812 21.707031 18.109375 20.675781 17.035156 L 20.613281 16.972656 C 20.582031 16.910156 20.488281 16.863281 20.40625 16.863281 C 20.3125 16.863281 20.234375 16.894531 20.167969 16.972656 C 19.882812 17.289062 18.710938 18.691406 18.425781 20.296875 C 17.15625 19.683594 15.773438 19.570312 15.523438 19.539062 C 15.425781 19.539062 15.332031 19.554688 15.269531 19.636719 C 15.203125 19.699219 15.171875 19.792969 15.1875 19.886719 C 15.1875 19.886719 15.1875 19.902344 15.1875 19.902344 L 15.1875 19.964844 C 15.234375 21.902344 15.726562 23.257812 16.648438 23.996094 C 17.140625 24.390625 17.726562 24.582031 18.425781 24.582031 C 18.695312 24.582031 18.964844 24.550781 19.265625 24.503906 C 19.425781 24.46875 19.519531 24.34375 19.519531 24.1875 C 19.519531 24.171875 19.503906 23.667969 19.28125 23.132812 C 19.25 23.070312 19.21875 23.003906 19.1875 22.925781 C 18.886719 22.34375 18.410156 21.917969 17.804688 21.714844 C 17.648438 21.652344 17.457031 21.746094 17.410156 21.902344 C 17.347656 22.0625 17.441406 22.25 17.601562 22.296875 C 18.058594 22.453125 18.394531 22.753906 18.613281 23.195312 C 18.648438 23.242188 18.664062 23.304688 18.695312 23.351562 C 18.789062 23.558594 18.835938 23.761719 18.851562 23.917969 C 18.125 24.015625 17.503906 23.871094 17.042969 23.492188 C 16.316406 22.910156 15.902344 21.808594 15.824219 20.1875 C 16.789062 20.3125 19.296875 20.785156 19.867188 22.660156 C 19.742188 23.164062 19.742188 23.699219 19.835938 24.296875 C 19.867188 24.46875 20.027344 24.582031 20.203125 24.550781 C 20.375 24.519531 20.488281 24.359375 20.457031 24.1875 C 20.296875 23.242188 20.457031 22.453125 20.964844 21.824219 C 21.882812 20.644531 23.722656 20.296875 24.515625 20.203125 C 24.4375 21.824219 24.023438 22.941406 23.3125 23.507812 C 22.851562 23.871094 22.265625 24.015625 21.550781 23.917969 C 21.582031 23.761719 21.628906 23.574219 21.707031 23.351562 C 21.929688 22.816406 22.296875 22.46875 22.789062 22.296875 C 22.945312 22.234375 23.042969 22.0625 22.976562 21.902344 C 22.914062 21.746094 22.738281 21.652344 22.582031 21.714844 C 21.914062 21.949219 21.40625 22.4375 21.121094 23.132812 C 20.898438 23.683594 20.882812 24.171875 20.882812 24.1875 C 20.882812 24.34375 20.996094 24.46875 21.136719 24.503906 C 21.421875 24.566406 21.707031 24.582031 21.960938 24.582031 C 22.644531 24.582031 23.230469 24.390625 23.707031 24.015625 C 24.628906 23.289062 25.105469 21.917969 25.167969 19.964844 Z M 20.472656 21.445312 C 20.375 21.050781 20.421875 20.675781 20.613281 20.3125 C 20.695312 20.15625 20.628906 19.964844 20.472656 19.886719 C 20.3125 19.808594 20.121094 19.871094 20.042969 20.027344 C 19.835938 20.4375 19.757812 20.863281 19.804688 21.304688 C 19.566406 21.035156 19.296875 20.816406 19.011719 20.628906 C 19.15625 19.382812 19.996094 18.1875 20.40625 17.652344 C 21.3125 18.644531 21.789062 19.539062 21.835938 20.34375 C 21.328125 20.628906 20.835938 20.972656 20.472656 21.445312 Z M 20.472656 21.445312 "/>
</g>
<path style=" stroke:none;fill-rule:nonzero;fill:rgb(100%,46.269226%,26.269531%);fill-opacity:1;" d="M 8.035156 15.917969 C 6.988281 15.917969 6.128906 16.769531 6.128906 17.808594 C 6.128906 18.847656 6.988281 19.699219 8.035156 19.699219 C 9.082031 19.699219 9.9375 18.847656 9.9375 17.808594 C 9.9375 16.769531 9.082031 15.917969 8.035156 15.917969 Z M 8.035156 19.066406 C 7.335938 19.066406 6.765625 18.5 6.765625 17.808594 C 6.765625 17.113281 7.335938 16.546875 8.035156 16.546875 C 8.730469 16.546875 9.300781 17.113281 9.300781 17.808594 C 9.300781 18.5 8.730469 19.066406 8.035156 19.066406 Z M 8.035156 19.066406 "/>
<g clip-path="url(#clip5)" clip-rule="nonzero">
<path style=" stroke:none;fill-rule:nonzero;fill:rgb(100%,46.269226%,26.269531%);fill-opacity:1;" d="M 11.667969 24.582031 L 16.363281 24.582031 C 16.316406 24.550781 16.28125 24.519531 16.234375 24.484375 C 16.046875 24.328125 15.855469 24.15625 15.695312 23.949219 L 11.839844 23.949219 C 11.839844 24.1875 11.777344 24.390625 11.667969 24.582031 Z M 11.667969 24.582031 "/>
</g>
<path style=" stroke:none;fill-rule:nonzero;fill:rgb(100%,46.269226%,26.269531%);fill-opacity:1;" d="M 11.269531 11.648438 C 11.523438 11.648438 11.632812 11.695312 11.777344 11.777344 C 11.953125 11.855469 12.175781 11.964844 12.570312 11.964844 C 12.96875 11.964844 13.1875 11.855469 13.363281 11.777344 C 13.507812 11.695312 13.617188 11.648438 13.871094 11.648438 C 14.125 11.648438 14.238281 11.695312 14.378906 11.777344 C 14.554688 11.855469 14.777344 11.964844 15.171875 11.964844 C 15.570312 11.964844 15.792969 11.855469 15.964844 11.777344 C 16.109375 11.695312 16.21875 11.648438 16.472656 11.648438 C 16.726562 11.648438 16.839844 11.695312 16.980469 11.777344 C 17.15625 11.855469 17.378906 11.964844 17.773438 11.964844 C 18.171875 11.964844 18.394531 11.855469 18.566406 11.777344 C 18.710938 11.695312 18.820312 11.648438 19.074219 11.648438 C 19.328125 11.648438 19.441406 11.695312 19.582031 11.777344 C 19.757812 11.855469 19.980469 11.964844 20.375 11.964844 C 20.773438 11.964844 20.996094 11.855469 21.167969 11.777344 C 21.234375 11.746094 21.28125 11.730469 21.328125 11.695312 L 20.964844 16.421875 C 21.011719 16.453125 21.058594 16.5 21.105469 16.546875 L 21.152344 16.59375 C 21.296875 16.738281 21.421875 16.894531 21.550781 17.035156 L 21.976562 11.367188 C 21.976562 11.367188 21.976562 11.351562 21.976562 11.351562 C 21.976562 11.351562 21.976562 11.335938 21.976562 11.335938 C 21.976562 11.320312 21.976562 11.320312 21.976562 11.320312 C 21.976562 11.320312 21.976562 11.320312 21.976562 11.304688 C 21.960938 11.144531 21.835938 11.019531 21.660156 11.019531 C 21.265625 11.019531 21.042969 11.128906 20.867188 11.207031 C 20.710938 11.289062 20.613281 11.335938 20.359375 11.335938 C 20.105469 11.335938 19.996094 11.289062 19.851562 11.207031 C 19.679688 11.128906 19.457031 11.019531 19.058594 11.019531 C 18.664062 11.019531 18.441406 11.128906 18.265625 11.207031 C 18.125 11.289062 18.011719 11.335938 17.757812 11.335938 C 17.503906 11.335938 17.394531 11.289062 17.25 11.207031 C 17.078125 11.128906 16.855469 11.019531 16.457031 11.019531 C 16.0625 11.019531 15.839844 11.128906 15.664062 11.207031 C 15.523438 11.289062 15.410156 11.335938 15.15625 11.335938 C 14.902344 11.335938 14.792969 11.289062 14.648438 11.207031 C 14.472656 11.128906 14.253906 11.019531 13.855469 11.019531 C 13.460938 11.019531 13.238281 11.128906 13.0625 11.207031 C 12.917969 11.289062 12.808594 11.335938 12.554688 11.335938 C 12.300781 11.335938 12.191406 11.289062 12.046875 11.207031 C 11.871094 11.128906 11.652344 11.019531 11.253906 11.019531 C 10.921875 11.019531 10.699219 11.097656 10.539062 11.175781 C 10.652344 11.382812 10.761719 11.585938 10.839844 11.730469 C 10.96875 11.679688 11.078125 11.648438 11.269531 11.648438 Z M 11.269531 11.648438 "/>
</g>
</svg>
