<svg height="459.31769pt" viewBox="0 0 459.31769 459.31769" width="459.31769pt" xmlns="http://www.w3.org/2000/svg"><path d="m66.828125 55.519531-53.269531-53.273437c-3.140625-3.03125-8.128906-2.988282-11.214844.097656s-3.128906 8.074219-.097656 11.214844l53.273437 53.269531-39.617187 118.792969 273.703125 273.695312 169.710937-169.710937-273.695312-273.703125zm81.363281 92.664063c-14.523437 14.515625-37.675781 15.683594-53.582031 2.695312-15.902344-12.984375-19.394531-35.902344-8.074219-53.035156l11.765625 11.769531c-4.554687 9.636719-2.191406 21.125 5.800781 28.179688 7.988282 7.054687 19.679688 7.980469 28.679688 2.265625 9-5.710938 13.140625-16.683594 10.152344-26.917969-2.984375-10.234375-12.371094-17.261719-23.03125-17.238281-3.558594.03125-7.066406.851562-10.273438 2.398437l-11.785156-11.78125c17.132812-11.320312 40.046875-7.832031 53.035156 8.070313 12.984375 15.902344 11.824219 39.054687-2.6875 53.574218zm0 0"/></svg>